<svg width="100" height="70" viewBox="0 0 100 70" fill="none" xmlns="http://www.w3.org/2000/svg">
<g clip-path="url(#clip0_8_15)">
<path d="M100 -7.62939e-06H0V70H100V-7.62939e-06Z" fill="#009B3A"/>
<path d="M8.5 35L50 61.5L91.5 35L50 8.5L8.5 35Z" fill="#FEDF00"/>
<path d="M50 52.5C59.665 52.5 67.5 44.665 67.5 35C67.5 25.335 59.665 17.5 50 17.5C40.335 17.5 32.5 25.335 32.5 35C32.5 44.665 40.335 52.5 50 52.5Z" fill="#002776"/>
<mask id="mask0_8_15" style="mask-type:luminance" maskUnits="userSpaceOnUse" x="32" y="17" width="36" height="36">
<path d="M50 52.5C59.665 52.5 67.5 44.665 67.5 35C67.5 25.335 59.665 17.5 50 17.5C40.335 17.5 32.5 25.335 32.5 35C32.5 44.665 40.335 52.5 50 52.5Z" fill="white"/>
</mask>
<g mask="url(#mask0_8_15)">
<path d="M-2.5 70C-2.5 58.7283 1.97767 47.9183 9.94796 39.948C17.9183 31.9777 28.7283 27.5 40 27.5C51.2717 27.5 62.0817 31.9777 70.052 39.948C78.0223 47.9183 82.5 58.7283 82.5 70H80C80 59.3913 75.7857 49.2172 68.2843 41.7157C60.7828 34.2143 50.6087 30 40 30C29.3913 30 19.2172 34.2143 11.7157 41.7157C4.21427 49.2172 4.65661e-08 59.3913 4.65661e-08 70H-2.5Z" fill="white"/>
</g>
<path fill-rule="evenodd" clip-rule="evenodd" d="M35.0745 29.8846C35.2719 29.8603 35.4506 29.75 35.5711 29.5777C35.6917 29.4054 35.7443 29.1854 35.7173 28.9661C35.6904 28.7467 35.5861 28.5459 35.4275 28.408C35.2688 28.27 35.0688 28.2061 34.8714 28.2303C34.6739 28.2546 34.4953 28.365 34.3747 28.5372C34.2542 28.7095 34.2016 28.9295 34.2285 29.1489C34.2554 29.3682 34.3597 29.569 34.5184 29.707C34.677 29.8449 34.877 29.9088 35.0745 29.8846M35.0368 29.5774C35.1527 29.5631 35.2572 29.4947 35.3272 29.3871C35.3972 29.2796 35.427 29.1417 35.4101 29.0038C35.3932 28.8659 35.3309 28.7393 35.2369 28.6519C35.143 28.5644 35.025 28.5233 34.9091 28.5376C34.7931 28.5518 34.6887 28.6202 34.6186 28.7278C34.5486 28.8354 34.5188 28.9733 34.5357 29.1111C34.5527 29.249 34.615 29.3756 34.7089 29.4631C34.8029 29.5505 34.9208 29.5916 35.0368 29.5774" fill="#009B3A"/>
<path fill-rule="evenodd" clip-rule="evenodd" d="M36.4325 29.7341L36.7413 29.7125L36.6981 29.095L37.3632 29.0485C37.5018 29.0388 37.6308 28.9744 37.722 28.8696C37.8131 28.7647 37.8589 28.628 37.8492 28.4894C37.8395 28.3508 37.7751 28.2218 37.6703 28.1306C37.5654 28.0395 37.4287 27.9937 37.2901 28.0034L36.34 28.0698L36.4325 29.7341ZM36.6765 28.7862L37.3178 28.7414C37.3745 28.7374 37.4273 28.7111 37.4646 28.6682C37.5019 28.6253 37.5206 28.5693 37.5166 28.5126C37.5127 28.456 37.4864 28.4032 37.4435 28.3659C37.4006 28.3286 37.3446 28.3099 37.2879 28.3138L36.6466 28.3587L36.6765 28.7862Z" fill="#009B3A"/>
<path d="M37.8457 29.6353C37.8291 29.3978 37.7926 28.8752 37.4363 28.9001L36.985 28.9317C37.5076 28.8952 37.5441 29.4177 37.5607 29.6552" fill="#009B3A"/>
<path fill-rule="evenodd" clip-rule="evenodd" d="M38.5448 29.6026L39.3304 29.5889C39.4242 29.5872 39.5167 29.5671 39.6027 29.5297C39.6887 29.4923 39.7666 29.4383 39.8317 29.3709C39.8969 29.3034 39.9481 29.2237 39.9825 29.1365C40.0169 29.0492 40.0337 28.956 40.0321 28.8622L40.0279 28.6242C40.0263 28.5304 40.0062 28.4378 39.9688 28.3518C39.9314 28.2658 39.8774 28.188 39.8099 28.1228C39.7425 28.0577 39.6628 28.0064 39.5755 27.972C39.4883 27.9377 39.3951 27.9208 39.3013 27.9225L38.5157 27.9362L38.5448 29.6026ZM38.8488 29.2877L39.3012 29.2798C39.4211 29.2777 39.5353 29.228 39.6187 29.1417C39.702 29.0554 39.7477 28.9396 39.7456 28.8196L39.7431 28.6768C39.741 28.5568 39.6913 28.4426 39.605 28.3592C39.5187 28.2759 39.4028 28.2303 39.2829 28.2323L38.8306 28.2402L38.8488 29.2877Z" fill="#009B3A"/>
<path d="M40.661 29.5818L42.1601 29.6341L42.1709 29.3248L40.9574 29.2824L40.9723 28.8541L41.9241 28.8873L41.9341 28.6018L40.9823 28.5686L40.9939 28.2354L42.1361 28.2753L42.1469 27.966L40.7192 27.9161L40.661 29.5818Z" fill="#009B3A"/>
<path d="M42.7755 29.6718L43.0601 29.6967L43.1597 28.5582L43.3921 29.7257L43.6531 29.7485L44.0847 28.6391L43.9851 29.7776L44.2697 29.8025L44.415 28.1422L43.9999 28.1059L43.5683 29.2153L43.3358 28.0478L42.9207 28.0114L42.7755 29.6718Z" fill="#009B3A"/>
<path d="M46.2286 30.0613L47.4605 30.273L47.5089 29.9914L46.5586 29.8281L46.6231 29.4526L47.3974 29.5857L47.4458 29.3041L46.6715 29.171L46.7158 28.9129L47.6368 29.0712L47.6852 28.7896L46.4826 28.5829L46.2286 30.0613Z" fill="#009B3A"/>
<path fill-rule="evenodd" clip-rule="evenodd" d="M49.3934 30.6829L49.6931 30.7604L49.8481 30.1611L50.4935 30.328C50.628 30.3628 50.7708 30.3427 50.8905 30.2722C51.0102 30.2017 51.097 30.0865 51.1318 29.952C51.1666 29.8175 51.1465 29.6747 51.076 29.555C51.0055 29.4353 50.8903 29.3485 50.7558 29.3138L49.8338 29.0753L49.3934 30.6829ZM49.9256 29.8614L50.548 30.0224C50.603 30.0366 50.6614 30.0284 50.7104 29.9996C50.7594 29.9707 50.7949 29.9236 50.8091 29.8686C50.8233 29.8135 50.8151 29.7551 50.7863 29.7062C50.7574 29.6572 50.7103 29.6217 50.6553 29.6075L50.0329 29.4465L49.9256 29.8614Z" fill="#009B3A"/>
<path fill-rule="evenodd" clip-rule="evenodd" d="M51.4383 31.2284L51.7335 31.3215L51.9196 30.7311L52.5554 30.9316C52.6879 30.9733 52.8316 30.9608 52.9548 30.8966C53.078 30.8325 53.1707 30.722 53.2125 30.5895C53.2543 30.457 53.2417 30.3133 53.1776 30.1901C53.1134 30.0669 53.003 29.9742 52.8705 29.9324L51.9622 29.646L51.4383 31.2284ZM52.0127 30.4359L52.6258 30.6292C52.68 30.6463 52.7388 30.6411 52.7892 30.6149C52.8396 30.5887 52.8775 30.5435 52.8946 30.4893C52.9117 30.4351 52.9066 30.3763 52.8803 30.3259C52.8541 30.2755 52.8089 30.2376 52.7547 30.2205L52.1416 30.0272L52.0127 30.4359Z" fill="#009B3A"/>
<path d="M52.7893 31.6544C52.8609 31.4273 53.0185 30.9278 52.6778 30.8204L52.2464 30.6843C52.746 30.8419 52.5885 31.3414 52.5169 31.5685" fill="#009B3A"/>
<path fill-rule="evenodd" clip-rule="evenodd" d="M54.1542 32.1428C54.3405 32.2125 54.55 32.1971 54.7364 32.0999C54.9229 32.0028 55.0712 31.8319 55.1486 31.6249C55.226 31.4179 55.2262 31.1917 55.1492 30.9961C55.0722 30.8004 54.9242 30.6514 54.7379 30.5817C54.5516 30.5121 54.3422 30.5275 54.1557 30.6246C53.9692 30.7217 53.821 30.8926 53.7436 31.0996C53.6662 31.3066 53.6659 31.5328 53.743 31.7285C53.82 31.9241 53.9679 32.0732 54.1542 32.1428M54.2626 31.8529C54.372 31.8938 54.4963 31.8814 54.6081 31.8183C54.7199 31.7552 54.81 31.6467 54.8586 31.5165C54.9073 31.3864 54.9105 31.2454 54.8675 31.1244C54.8245 31.0035 54.7389 30.9125 54.6295 30.8716C54.5201 30.8307 54.3958 30.8432 54.284 30.9063C54.1723 30.9693 54.0821 31.0779 54.0335 31.208C53.9848 31.3381 53.9816 31.4792 54.0246 31.6001C54.0676 31.7211 54.1532 31.812 54.2626 31.8529" fill="#009B3A"/>
<mask id="mask1_8_15" style="mask-type:luminance" maskUnits="userSpaceOnUse" x="55" y="31" width="3" height="3">
<path d="M55.4283 32.6364L56.0929 31.108L57.4685 31.7061L56.8039 33.2345L55.4283 32.6364ZM56.5623 31.9093L56.4484 32.1713L57.1362 32.4703L57.2501 32.2083L56.5623 31.9093Z" fill="white"/>
</mask>
<g mask="url(#mask1_8_15)">
<path fill-rule="evenodd" clip-rule="evenodd" d="M56.1161 32.9355C56.2985 33.0148 56.5085 33.0104 56.6998 32.9231C56.8911 32.8359 57.0481 32.673 57.1362 32.4703C57.2243 32.2676 57.2364 32.0418 57.1697 31.8424C57.103 31.643 56.9631 31.4864 56.7807 31.4071C56.5983 31.3277 56.3883 31.3322 56.197 31.4194C56.0057 31.5067 55.8487 31.6695 55.7606 31.8722C55.6725 32.0749 55.6604 32.3008 55.7271 32.5002C55.7938 32.6996 55.9337 32.8562 56.1161 32.9355M56.2395 32.6516C56.3467 32.6982 56.4714 32.6923 56.5863 32.6351C56.7013 32.578 56.7969 32.4743 56.8523 32.3469C56.9077 32.2195 56.9183 32.0788 56.8817 31.9558C56.8451 31.8328 56.7644 31.7375 56.6573 31.6909C56.5501 31.6443 56.4254 31.6503 56.3105 31.7074C56.1955 31.7646 56.0999 31.8682 56.0445 31.9956C55.9891 32.123 55.9785 32.2637 56.0151 32.3867C56.0517 32.5098 56.1324 32.6051 56.2395 32.6516" fill="#009B3A"/>
</g>
<path d="M57.1362 32.4703L56.5576 32.2187L56.4626 32.4371L57.0412 32.6887L57.1362 32.4703Z" fill="#009B3A"/>
<path d="M57.1362 32.4703L56.9178 32.3754L56.5856 33.1396L56.8039 33.2345L57.1362 32.4703Z" fill="#009B3A"/>
<path fill-rule="evenodd" clip-rule="evenodd" d="M57.3627 33.4951L57.6397 33.6332L57.9159 33.0792L58.5125 33.3767C58.6368 33.4386 58.7807 33.4487 58.9124 33.4046C59.0442 33.3605 59.153 33.2659 59.215 33.1416C59.277 33.0173 59.287 32.8734 59.243 32.7417C59.1989 32.6099 59.1043 32.5011 58.9799 32.4391L58.1276 32.0142L57.3627 33.4951ZM58.054 32.8022L58.6293 33.089C58.6802 33.1144 58.739 33.1185 58.7929 33.1005C58.8468 33.0824 58.8913 33.0437 58.9167 32.9929C58.942 32.942 58.9462 32.8832 58.9281 32.8293C58.9101 32.7754 58.8714 32.7308 58.8205 32.7055L58.2452 32.4186L58.054 32.8022Z" fill="#009B3A"/>
<path d="M58.6305 34.1272C58.7367 33.9141 58.9704 33.4453 58.6508 33.286L58.246 33.0841C58.7147 33.3179 58.481 33.7866 58.3748 33.9997" fill="#009B3A"/>
<path d="M59.2494 34.4538L60.5549 35.1924L60.7073 34.923L59.6505 34.3251L59.8615 33.9521L60.6904 34.4211L60.8311 34.1724L60.0022 33.7034L60.1663 33.4133L61.161 33.9761L61.3134 33.7067L60.0701 33.0032L59.2494 34.4538Z" fill="#009B3A"/>
<path d="M61.6811 35.2697C61.5915 35.4102 61.6823 35.5669 61.8831 35.6948C62.0839 35.8227 62.2207 35.8181 62.2784 35.7279C62.4607 35.4417 61.4068 35.0244 61.7317 34.5256C62.0117 34.097 62.4909 34.4305 62.6716 34.5457C62.8524 34.6608 63.1426 34.9586 62.9169 35.3018L62.6106 35.1067C62.7066 34.9561 62.6012 34.8113 62.4406 34.709C62.2849 34.6098 62.1585 34.5646 62.0657 34.7102C61.9104 34.9429 62.9433 35.3822 62.6267 35.8791C62.3932 36.2456 61.987 36.0856 61.7159 35.9129C61.485 35.7658 61.1399 35.419 61.3648 35.0682L61.6811 35.2697Z" fill="#009B3A"/>
<path d="M63.469 36.452C63.3722 36.5876 63.4547 36.7488 63.6485 36.8871C63.8423 37.0253 63.9791 37.0279 64.0416 36.9408C64.2386 36.6646 63.208 36.1926 63.5585 35.7115C63.8606 35.2982 64.3216 35.6563 64.4961 35.7808C64.6705 35.9052 64.9448 36.2178 64.7014 36.5487L64.4058 36.3379C64.5095 36.1925 64.4118 36.0424 64.2568 35.9318C64.1066 35.8246 63.9827 35.7728 63.8824 35.9133C63.7151 36.1377 64.7236 36.6303 64.3814 37.1101C64.1291 37.4638 63.7318 37.2828 63.4701 37.0962C63.2472 36.9372 62.9208 36.5727 63.1637 36.2342L63.469 36.452Z" fill="#009B3A"/>
<path fill-rule="evenodd" clip-rule="evenodd" d="M65.16 38.3696C65.3157 38.4934 65.5196 38.5435 65.727 38.5087C65.9344 38.474 66.1282 38.3573 66.2657 38.1843C66.4033 38.0113 66.4734 37.7963 66.4607 37.5864C66.4479 37.3765 66.3532 37.1891 66.1976 37.0652C66.0419 36.9414 65.8379 36.8914 65.6306 36.9261C65.4232 36.9609 65.2294 37.0776 65.0918 37.2505C64.9542 37.4235 64.8841 37.6386 64.8969 37.8484C64.9097 38.0583 65.0044 38.2458 65.16 38.3696M65.3527 38.1273C65.4441 38.2001 65.5662 38.2266 65.692 38.2012C65.8178 38.1757 65.937 38.1003 66.0235 37.9916C66.11 37.8829 66.1566 37.7497 66.1531 37.6214C66.1496 37.4931 66.0963 37.3802 66.0049 37.3075C65.9134 37.2347 65.7914 37.2082 65.6656 37.2336C65.5398 37.2591 65.4206 37.3345 65.3341 37.4432C65.2476 37.5519 65.201 37.6851 65.2045 37.8134C65.208 37.9417 65.2613 38.0546 65.3527 38.1273" fill="#009B3A"/>
<path d="M35.7143 31.1071L35.4825 31.8204L35.8392 31.9363" fill="white"/>
<path d="M35.7143 31.1071L35.9461 31.8204L35.5894 31.9363" fill="white"/>
<path d="M36.4276 31.6254H35.6776V32.0004" fill="white"/>
<path d="M36.4276 31.6254L35.8208 32.0662L35.6004 31.7628" fill="white"/>
<path d="M35.001 31.6254L35.6078 32.0662L35.8282 31.7628" fill="white"/>
<path d="M35.001 31.6254H35.751V32.0004" fill="white"/>
<path d="M36.1552 32.4639L35.9234 31.7506L35.5667 31.8665" fill="white"/>
<path d="M36.1552 32.4639L35.5484 32.0231L35.7688 31.7197" fill="white"/>
<path d="M35.2735 32.4639L35.8803 32.0231L35.6598 31.7197" fill="white"/>
<path d="M35.2735 32.4639L35.5053 31.7506L35.8619 31.8665" fill="white"/>
<path d="M37.2619 38.4643L37.0301 39.1776L37.3868 39.2935" fill="white"/>
<path d="M37.2619 38.4643L37.4937 39.1776L37.137 39.2935" fill="white"/>
<path d="M37.9752 38.9825H37.2252V39.3575" fill="white"/>
<path d="M37.9752 38.9825L37.3685 39.4234L37.148 39.12" fill="white"/>
<path d="M36.5486 38.9825L37.1554 39.4234L37.3758 39.12" fill="white"/>
<path d="M36.5486 38.9825H37.2986V39.3575" fill="white"/>
<path d="M37.7028 39.8211L37.471 39.1078L37.1143 39.2236" fill="white"/>
<path d="M37.7028 39.8211L37.096 39.3802L37.3164 39.0768" fill="white"/>
<path d="M36.8211 39.8211L37.4279 39.3802L37.2074 39.0768" fill="white"/>
<path d="M36.8211 39.8211L37.0529 39.1078L37.4095 39.2236" fill="white"/>
<path d="M35.119 40.1607L34.9259 40.7551L35.2231 40.8517" fill="white"/>
<path d="M35.119 40.1607L35.3122 40.7551L35.0149 40.8517" fill="white"/>
<path d="M35.7135 40.5926H35.0885V40.9051" fill="white"/>
<path d="M35.7135 40.5926L35.2079 40.9599L35.0242 40.7071" fill="white"/>
<path d="M34.5247 40.5926L35.0303 40.9599L35.214 40.7071" fill="white"/>
<path d="M34.5247 40.5926H35.1497V40.9051" fill="white"/>
<path d="M35.4865 41.2913L35.2933 40.6969L34.9961 40.7935" fill="white"/>
<path d="M35.4865 41.2913L34.9808 40.924L35.1645 40.6712" fill="white"/>
<path d="M34.7517 41.2914L35.2573 40.924L35.0737 40.6712" fill="white"/>
<path d="M34.7517 41.2914L34.9448 40.6969L35.242 40.7935" fill="white"/>
<path d="M38.9762 37.7857L38.8658 38.1254L39.0357 38.1806" fill="white"/>
<path d="M38.9762 37.7857L39.0866 38.1254L38.9167 38.1806" fill="white"/>
<path d="M39.3159 38.0325H38.9587V38.2111" fill="white"/>
<path d="M39.3159 38.0325L39.0269 38.2424L38.922 38.0979" fill="white"/>
<path d="M38.6365 38.0325L38.9255 38.2424L39.0304 38.0979" fill="white"/>
<path d="M38.6365 38.0325H38.9937V38.2111" fill="white"/>
<path d="M39.1861 38.4318L39.0757 38.0921L38.9059 38.1473" fill="white"/>
<path d="M39.1861 38.4318L38.8972 38.2219L39.0021 38.0774" fill="white"/>
<path d="M38.7663 38.4318L39.0552 38.2219L38.9503 38.0774" fill="white"/>
<path d="M38.7663 38.4318L38.8767 38.0921L39.0465 38.1473" fill="white"/>
<path d="M40.9047 40.3274L40.7116 40.9218L41.0088 41.0184" fill="white"/>
<path d="M40.9047 40.3274L41.0979 40.9218L40.8007 41.0184" fill="white"/>
<path d="M41.4992 40.7592H40.8742V41.0717" fill="white"/>
<path d="M41.4992 40.7592L40.9936 41.1266L40.8099 40.8738" fill="white"/>
<path d="M40.3104 40.7592L40.816 41.1266L40.9997 40.8738" fill="white"/>
<path d="M40.3104 40.7592H40.9354V41.0717" fill="white"/>
<path d="M41.2722 41.458L41.079 40.8636L40.7818 40.9602" fill="white"/>
<path d="M41.2722 41.458L40.7665 41.0906L40.9502 40.8378" fill="white"/>
<path d="M40.5374 41.458L41.0431 41.0906L40.8594 40.8378" fill="white"/>
<path d="M40.5374 41.458L40.7306 40.8636L41.0278 40.9602" fill="white"/>
<path d="M40.381 42.1905L40.2265 42.666L40.4642 42.7433" fill="white"/>
<path d="M40.381 42.1905L40.5355 42.666L40.2977 42.7433" fill="white"/>
<path d="M40.8565 42.536H40.3565V42.786" fill="white"/>
<path d="M40.8565 42.536L40.452 42.8299L40.3051 42.6276" fill="white"/>
<path d="M39.9055 42.536L40.31 42.8299L40.4569 42.6276" fill="white"/>
<path d="M39.9055 42.536H40.4055V42.786" fill="white"/>
<path d="M40.6749 43.095L40.5204 42.6195L40.2826 42.6967" fill="white"/>
<path d="M40.6749 43.095L40.2704 42.8011L40.4173 42.5988" fill="white"/>
<path d="M40.087 43.095L40.4915 42.8011L40.3446 42.5988" fill="white"/>
<path d="M40.087 43.095L40.2415 42.6195L40.4793 42.6967" fill="white"/>
<path d="M55.4285 28.8214L55.1968 29.5347L55.5534 29.6506" fill="white"/>
<path d="M55.4285 28.8214L55.6603 29.5347L55.3036 29.6506" fill="white"/>
<path d="M56.1418 29.3397H55.3918V29.7147" fill="white"/>
<path d="M56.1418 29.3397L55.5351 29.7805L55.3147 29.4771" fill="white"/>
<path d="M54.7153 29.3397L55.322 29.7805L55.5425 29.4771" fill="white"/>
<path d="M54.7153 29.3397H55.4653V29.7147" fill="white"/>
<path d="M55.8694 30.1782L55.6376 29.4649L55.281 29.5808" fill="white"/>
<path d="M55.8694 30.1782L55.2626 29.7374L55.483 29.434" fill="white"/>
<path d="M54.9877 30.1782L55.5945 29.7373L55.3741 29.434" fill="white"/>
<path d="M54.9877 30.1782L55.2195 29.4649L55.5761 29.5808" fill="white"/>
<path d="M62.2619 40.3929L62.0301 41.1062L62.3868 41.222" fill="white"/>
<path d="M62.2619 40.3929L62.4937 41.1062L62.137 41.222" fill="white"/>
<path d="M62.9752 40.9111H62.2252V41.2861" fill="white"/>
<path d="M62.9752 40.9111L62.3685 41.3519L62.148 41.0486" fill="white"/>
<path d="M61.5486 40.9111L62.1554 41.3519L62.3758 41.0486" fill="white"/>
<path d="M61.5486 40.9111H62.2986V41.2861" fill="white"/>
<path d="M62.7028 41.7496L62.471 41.0363L62.1143 41.1522" fill="white"/>
<path d="M62.7028 41.7496L62.096 41.3088L62.3164 41.0054" fill="white"/>
<path d="M61.8211 41.7496L62.4279 41.3088L62.2074 41.0054" fill="white"/>
<path d="M61.8211 41.7496L62.0529 41.0363L62.4095 41.1522" fill="white"/>
<path d="M64.6905 40.8095L64.536 41.2851L64.7737 41.3623" fill="white"/>
<path d="M64.6905 40.8095L64.845 41.2851L64.6072 41.3623" fill="white"/>
<path d="M65.166 41.155H64.666V41.405" fill="white"/>
<path d="M65.166 41.155L64.7615 41.4489L64.6146 41.2467" fill="white"/>
<path d="M64.215 41.155L64.6195 41.4489L64.7664 41.2467" fill="white"/>
<path d="M64.215 41.155H64.715V41.405" fill="white"/>
<path d="M64.9843 41.714L64.8298 41.2385L64.592 41.3158" fill="white"/>
<path d="M64.9843 41.714L64.5798 41.4201L64.7268 41.2179" fill="white"/>
<path d="M64.3965 41.714L64.8011 41.4201L64.6541 41.2179" fill="white"/>
<path d="M64.3965 41.714L64.5511 41.2385L64.7888 41.3158" fill="white"/>
<path d="M62.9761 42.0655L62.783 42.6599L63.0802 42.7565" fill="white"/>
<path d="M62.9761 42.0655L63.1693 42.6599L62.8721 42.7565" fill="white"/>
<path d="M63.5706 42.4973H62.9456V42.8098" fill="white"/>
<path d="M63.5706 42.4973L63.065 42.8647L62.8813 42.6119" fill="white"/>
<path d="M62.3818 42.4973L62.8874 42.8647L63.0711 42.6119" fill="white"/>
<path d="M62.3818 42.4973H63.0068V42.8098" fill="white"/>
<path d="M63.3436 43.1961L63.1504 42.6017L62.8532 42.6983" fill="white"/>
<path d="M63.3436 43.1961L62.8379 42.8287L63.0216 42.5759" fill="white"/>
<path d="M62.6088 43.1961L63.1145 42.8287L62.9308 42.5759" fill="white"/>
<path d="M62.6088 43.1961L62.802 42.6017L63.0992 42.6983" fill="white"/>
<path d="M58.7619 45.7321L58.5688 46.3266L58.866 46.4231" fill="white"/>
<path d="M58.7619 45.7321L58.955 46.3266L58.6578 46.4231" fill="white"/>
<path d="M59.3564 46.164H58.7314V46.4765" fill="white"/>
<path d="M59.3564 46.164L58.8507 46.5314L58.6671 46.2786" fill="white"/>
<path d="M58.1675 46.164L58.6732 46.5314L58.8569 46.2786" fill="white"/>
<path d="M58.1675 46.164H58.7925V46.4765" fill="white"/>
<path d="M59.1293 46.8628L58.9362 46.2684L58.639 46.3649" fill="white"/>
<path d="M59.1293 46.8628L58.6237 46.4954L58.8074 46.2426" fill="white"/>
<path d="M58.3946 46.8628L58.9002 46.4954L58.7165 46.2426" fill="white"/>
<path d="M58.3946 46.8628L58.5877 46.2684L58.8849 46.3649" fill="white"/>
<path d="M58.7381 47.619L58.5836 48.0946L58.8214 48.1718" fill="white"/>
<path d="M58.7381 47.619L58.8926 48.0946L58.6548 48.1718" fill="white"/>
<path d="M59.2136 47.9645H58.7136V48.2145" fill="white"/>
<path d="M59.2136 47.9645L58.8091 48.2584L58.6622 48.0562" fill="white"/>
<path d="M58.2626 47.9645L58.6671 48.2584L58.814 48.0562" fill="white"/>
<path d="M58.2626 47.9645H58.7626V48.2145" fill="white"/>
<path d="M59.032 48.5236L58.8775 48.048L58.6397 48.1253" fill="white"/>
<path d="M59.032 48.5236L58.6275 48.2297L58.7744 48.0274" fill="white"/>
<path d="M58.4442 48.5236L58.8487 48.2297L58.7017 48.0274" fill="white"/>
<path d="M58.4442 48.5236L58.5987 48.048L58.8364 48.1253" fill="white"/>
<path d="M60.5 44.4762L60.3455 44.9517L60.5833 45.029" fill="white"/>
<path d="M60.5 44.4762L60.6545 44.9517L60.4167 45.029" fill="white"/>
<path d="M60.9755 44.8217H60.4755V45.0717" fill="white"/>
<path d="M60.9755 44.8217L60.571 45.1156L60.4241 44.9133" fill="white"/>
<path d="M60.0245 44.8217L60.429 45.1156L60.5759 44.9133" fill="white"/>
<path d="M60.0245 44.8217H60.5245V45.0717" fill="white"/>
<path d="M60.7939 45.3807L60.6394 44.9052L60.4016 44.9824" fill="white"/>
<path d="M60.7939 45.3807L60.3894 45.0868L60.5363 44.8846" fill="white"/>
<path d="M60.2061 45.3807L60.6106 45.0868L60.4636 44.8846" fill="white"/>
<path d="M60.2061 45.3807L60.3606 44.9052L60.5983 44.9824" fill="white"/>
<path d="M61.9047 43.4702L61.7116 44.0646L62.0088 44.1612" fill="white"/>
<path d="M61.9047 43.4702L62.0979 44.0646L61.8007 44.1612" fill="white"/>
<path d="M62.4992 43.9021H61.8742V44.2146" fill="white"/>
<path d="M62.4992 43.9021L61.9936 44.2695L61.8099 44.0167" fill="white"/>
<path d="M61.3104 43.9021L61.816 44.2695L61.9997 44.0166" fill="white"/>
<path d="M61.3104 43.9021H61.9354V44.2146" fill="white"/>
<path d="M62.2722 44.6009L62.079 44.0065L61.7818 44.103" fill="white"/>
<path d="M62.2722 44.6009L61.7665 44.2335L61.9502 43.9807" fill="white"/>
<path d="M61.5374 44.6009L62.0431 44.2335L61.8594 43.9807" fill="white"/>
<path d="M61.5374 44.6009L61.7306 44.0065L62.0278 44.103" fill="white"/>
<path d="M58.6905 44.1429L58.536 44.6184L58.7737 44.6956" fill="white"/>
<path d="M58.6905 44.1429L58.845 44.6184L58.6072 44.6956" fill="white"/>
<path d="M59.166 44.4883H58.666V44.7383" fill="white"/>
<path d="M59.166 44.4883L58.7615 44.7822L58.6146 44.58" fill="white"/>
<path d="M58.215 44.4883L58.6195 44.7822L58.7664 44.58" fill="white"/>
<path d="M58.215 44.4883H58.715V44.7383" fill="white"/>
<path d="M58.9844 45.0474L58.8299 44.5718L58.5921 44.6491" fill="white"/>
<path d="M58.9844 45.0474L58.5799 44.7535L58.7268 44.5512" fill="white"/>
<path d="M58.3965 45.0474L58.8011 44.7535L58.6541 44.5512" fill="white"/>
<path d="M58.3965 45.0474L58.5511 44.5718L58.7888 44.6491" fill="white"/>
<path d="M43.3333 35.0893L43.1402 35.6837L43.4374 35.7803" fill="white"/>
<path d="M43.3333 35.0893L43.5264 35.6837L43.2292 35.7803" fill="white"/>
<path d="M43.9278 35.5211H43.3028V35.8336" fill="white"/>
<path d="M43.9278 35.5211L43.4222 35.8885L43.2385 35.6357" fill="white"/>
<path d="M42.739 35.5211L43.2446 35.8885L43.4283 35.6357" fill="white"/>
<path d="M42.739 35.5211H43.364V35.8336" fill="white"/>
<path d="M43.7007 36.2199L43.5076 35.6255L43.2104 35.7221" fill="white"/>
<path d="M43.7007 36.2199L43.1951 35.8526L43.3788 35.5997" fill="white"/>
<path d="M42.966 36.2199L43.4716 35.8526L43.288 35.5997" fill="white"/>
<path d="M42.966 36.2199L43.1591 35.6255L43.4563 35.7221" fill="white"/>
<path d="M54.7619 33.619L54.6074 34.0946L54.8452 34.1718" fill="white"/>
<path d="M54.7619 33.619L54.9164 34.0946L54.6786 34.1718" fill="white"/>
<path d="M55.2374 33.9645H54.7374V34.2145" fill="white"/>
<path d="M55.2374 33.9645L54.8329 34.2584L54.686 34.0562" fill="white"/>
<path d="M54.2864 33.9645L54.6909 34.2584L54.8378 34.0562" fill="white"/>
<path d="M54.2864 33.9645H54.7864V34.2145" fill="white"/>
<path d="M55.0558 34.5236L54.9013 34.048L54.6635 34.1253" fill="white"/>
<path d="M55.0558 34.5236L54.6513 34.2297L54.7982 34.0274" fill="white"/>
<path d="M54.468 34.5236L54.8725 34.2297L54.7255 34.0274" fill="white"/>
<path d="M54.468 34.5236L54.6225 34.048L54.8602 34.1253" fill="white"/>
<path d="M50 42.1071L49.7682 42.8204L50.1249 42.9363" fill="white"/>
<path d="M50 42.1071L50.2318 42.8204L49.8751 42.9363" fill="white"/>
<path d="M50.7133 42.6254H49.9633V43.0004" fill="white"/>
<path d="M50.7133 42.6254L50.1066 43.0662L49.8861 42.7628" fill="white"/>
<path d="M49.2867 42.6254L49.8935 43.0662L50.1139 42.7628" fill="white"/>
<path d="M49.2867 42.6254H50.0367V43.0004" fill="white"/>
<path d="M50.4409 43.4639L50.2091 42.7506L49.8524 42.8665" fill="white"/>
<path d="M50.4409 43.4639L49.8341 43.0231L50.0545 42.7197" fill="white"/>
<path d="M49.5592 43.4639L50.166 43.0231L49.9455 42.7197" fill="white"/>
<path d="M49.5592 43.4639L49.791 42.7506L50.1476 42.8665" fill="white"/>
<path d="M52.0237 38.756L51.8306 39.3504L52.1278 39.4469" fill="white"/>
<path d="M52.0237 38.756L52.2169 39.3504L51.9197 39.4469" fill="white"/>
<path d="M52.6182 39.1878H51.9932V39.5003" fill="white"/>
<path d="M52.6182 39.1878L52.1126 39.5552L51.9289 39.3024" fill="white"/>
<path d="M51.4294 39.1878L51.935 39.5552L52.1187 39.3024" fill="white"/>
<path d="M51.4294 39.1878H52.0544V39.5003" fill="white"/>
<path d="M52.3912 39.8866L52.198 39.2922L51.9008 39.3887" fill="white"/>
<path d="M52.3912 39.8866L51.8855 39.5192L52.0692 39.2664" fill="white"/>
<path d="M51.6564 39.8866L52.1621 39.5192L51.9784 39.2664" fill="white"/>
<path d="M51.6564 39.8866L51.8496 39.2922L52.1468 39.3887" fill="white"/>
<path d="M49.9999 37.1845L49.8068 37.7789L50.104 37.8755" fill="white"/>
<path d="M49.9999 37.1845L50.1931 37.7789L49.8959 37.8755" fill="white"/>
<path d="M50.5944 37.6164H49.9694V37.9289" fill="white"/>
<path d="M50.5944 37.6164L50.0888 37.9838L49.9051 37.7309" fill="white"/>
<path d="M49.4056 37.6164L49.9112 37.9838L50.0949 37.7309" fill="white"/>
<path d="M49.4056 37.6164H50.0306V37.9289" fill="white"/>
<path d="M50.3674 38.3152L50.1742 37.7207L49.877 37.8173" fill="white"/>
<path d="M50.3674 38.3152L49.8617 37.9478L50.0454 37.695" fill="white"/>
<path d="M49.6326 38.3152L50.1383 37.9478L49.9546 37.695" fill="white"/>
<path d="M49.6326 38.3152L49.8258 37.7208L50.123 37.8173" fill="white"/>
<path d="M48.2381 38.881L48.0836 39.3565L48.3214 39.4337" fill="white"/>
<path d="M48.2381 38.881L48.3926 39.3565L48.1548 39.4337" fill="white"/>
<path d="M48.7136 39.2264H48.2136V39.4764" fill="white"/>
<path d="M48.7136 39.2264L48.3091 39.5203L48.1622 39.3181" fill="white"/>
<path d="M47.7626 39.2264L48.1671 39.5203L48.314 39.3181" fill="white"/>
<path d="M47.7626 39.2264H48.2626V39.4764" fill="white"/>
<path d="M48.532 39.7855L48.3775 39.3099L48.1397 39.3872" fill="white"/>
<path d="M48.532 39.7855L48.1275 39.4916L48.2744 39.2893" fill="white"/>
<path d="M47.9442 39.7855L48.3487 39.4916L48.2017 39.2893" fill="white"/>
<path d="M47.9442 39.7855L48.0987 39.3099L48.3364 39.3872" fill="white"/>
<path d="M49.1191 40.2381L49.0087 40.5778L49.1785 40.6329" fill="white"/>
<path d="M49.1191 40.2381L49.2294 40.5778L49.0596 40.6329" fill="white"/>
<path d="M49.4587 40.4849H49.1016V40.6634" fill="white"/>
<path d="M49.4587 40.4849L49.1698 40.6948L49.0648 40.5503" fill="white"/>
<path d="M48.7794 40.4849L49.0684 40.6948L49.1733 40.5503" fill="white"/>
<path d="M48.7794 40.4849H49.1366V40.6634" fill="white"/>
<path d="M49.329 40.8842L49.2186 40.5445L49.0488 40.5997" fill="white"/>
<path d="M49.329 40.8842L49.04 40.6742L49.145 40.5298" fill="white"/>
<path d="M48.9092 40.8842L49.1981 40.6743L49.0932 40.5298" fill="white"/>
<path d="M48.9092 40.8842L49.0195 40.5445L49.1894 40.5997" fill="white"/>
<path d="M55.238 46.1607L55.0449 46.7551L55.3421 46.8517" fill="white"/>
<path d="M55.238 46.1607L55.4312 46.7551L55.134 46.8517" fill="white"/>
<path d="M55.8325 46.5926H55.2075V46.9051" fill="white"/>
<path d="M55.8325 46.5926L55.3269 46.9599L55.1432 46.7071" fill="white"/>
<path d="M54.6437 46.5926L55.1493 46.9599L55.333 46.7071" fill="white"/>
<path d="M54.6437 46.5926H55.2687V46.9051" fill="white"/>
<path d="M55.6055 47.2914L55.4123 46.6969L55.1151 46.7935" fill="white"/>
<path d="M55.6055 47.2914L55.0998 46.924L55.2835 46.6712" fill="white"/>
<path d="M54.8707 47.2914L55.3764 46.924L55.1927 46.6712" fill="white"/>
<path d="M54.8707 47.2914L55.0639 46.6969L55.3611 46.7935" fill="white"/>
<path d="M56.7381 44.7381L56.5836 45.2136L56.8214 45.2909" fill="white"/>
<path d="M56.7381 44.7381L56.8926 45.2136L56.6548 45.2909" fill="white"/>
<path d="M57.2136 45.0836H56.7136V45.3336" fill="white"/>
<path d="M57.2136 45.0836L56.8091 45.3775L56.6622 45.1752" fill="white"/>
<path d="M56.2626 45.0836L56.6671 45.3775L56.814 45.1752" fill="white"/>
<path d="M56.2626 45.0836H56.7626V45.3336" fill="white"/>
<path d="M57.032 45.6426L56.8775 45.1671L56.6397 45.2443" fill="white"/>
<path d="M57.032 45.6426L56.6275 45.3487L56.7744 45.1465" fill="white"/>
<path d="M56.4442 45.6426L56.8487 45.3487L56.7017 45.1465" fill="white"/>
<path d="M56.4442 45.6426L56.5987 45.1671L56.8364 45.2443" fill="white"/>
<path d="M53.8572 44.3095L53.7027 44.7851L53.9404 44.8623" fill="white"/>
<path d="M53.8572 44.3095L54.0117 44.7851L53.7739 44.8623" fill="white"/>
<path d="M54.3327 44.655H53.8327V44.905" fill="white"/>
<path d="M54.3327 44.655L53.9282 44.9489L53.7812 44.7467" fill="white"/>
<path d="M53.3817 44.655L53.7862 44.9489L53.9331 44.7467" fill="white"/>
<path d="M53.3817 44.655H53.8817V44.905" fill="white"/>
<path d="M54.1511 45.214L53.9966 44.7385L53.7588 44.8158" fill="white"/>
<path d="M54.1511 45.214L53.7466 44.9201L53.8935 44.7179" fill="white"/>
<path d="M53.5632 45.214L53.9677 44.9201L53.8208 44.7179" fill="white"/>
<path d="M53.5632 45.214L53.7177 44.7385L53.9555 44.8158" fill="white"/>
<path d="M42.9762 43.5357L42.7444 44.249L43.1011 44.3649" fill="white"/>
<path d="M42.9762 43.5357L43.208 44.249L42.8513 44.3649" fill="white"/>
<path d="M43.6895 44.054H42.9395V44.429" fill="white"/>
<path d="M43.6895 44.054L43.0828 44.4948L42.8623 44.1914" fill="white"/>
<path d="M42.2629 44.054L42.8697 44.4948L43.0901 44.1914" fill="white"/>
<path d="M42.2629 44.054H43.0129V44.429" fill="white"/>
<path d="M43.4171 44.8925L43.1853 44.1792L42.8286 44.2951" fill="white"/>
<path d="M43.4171 44.8925L42.8103 44.4516L43.0307 44.1483" fill="white"/>
<path d="M42.5354 44.8925L43.1422 44.4516L42.9217 44.1483" fill="white"/>
<path d="M42.5354 44.8925L42.7672 44.1792L43.1238 44.2951" fill="white"/>
<path d="M50.0001 48.4405L49.9228 48.6782L50.0417 48.7169" fill="white"/>
<path d="M50.0001 48.4405L50.0773 48.6782L49.9584 48.7169" fill="white"/>
<path d="M50.2378 48.6132H49.9878V48.7382" fill="white"/>
<path d="M50.2378 48.6132L50.0355 48.7602L49.9621 48.659" fill="white"/>
<path d="M49.7623 48.6132L49.9645 48.7602L50.038 48.659" fill="white"/>
<path d="M49.7623 48.6132H50.0123V48.7382" fill="white"/>
<path d="M50.147 48.8927L50.0697 48.655L49.9508 48.6936" fill="white"/>
<path d="M50.147 48.8927L49.9447 48.7458L50.0182 48.6447" fill="white"/>
<path d="M49.8531 48.8927L50.0553 48.7458L49.9819 48.6447" fill="white"/>
<path d="M49.8531 48.8927L49.9303 48.655L50.0492 48.6936" fill="white"/>
</g>
<defs>
<clipPath id="clip0_8_15">
<rect width="100" height="70" fill="white"/>
</clipPath>
</defs>
</svg>
